<svg width="200" height="48" viewBox="0 0 200 48" fill="none" xmlns="http://www.w3.org/2000/svg">
  <rect width="200" height="48" fill="white"/>
  <g transform="translate(8,6)" fill="#0F172A">
    <path d="M18 2c-1.7 0-3 .9-3.4 2.3l-3 9.2c-.4 1.3.6 2.5 2 2.5h8.2c1 0 1.9.6 2.3 1.5l2 4.3c.3.7 0 1.5-.7 1.8l-1.4.7c-.7.3-1.5 0-1.8-.7l-.9-2H12l-1.5 5.1c-.2.7-.8 1.2-1.5 1.2h-1c-.9 0-1.6-.8-1.4-1.7l1.8-6.1h-1c-1 0-1.8-.9-1.4-1.9l4.3-12.9C11.6 1.4 13.6 0 16 0h6.7c.9 0 1.6.7 1.6 1.6v1.4H18z"/>
    <rect x="24" y="2" width="8" height="4" rx="2"/>
  </g>
  <text x="64" y="31" font-family="Manrope, Arial, sans-serif" font-size="22" fill="#0F172A" font-weight="600">BR Furniture</text>
</svg>
